<?xml version="1.0" encoding="utf-8"?>
<!DOCTYPE svg PUBLIC "-//W3C//DTD SVG 1.1 Tiny//EN" "http://www.w3.org/Graphics/SVG/1.1/DTD/svg11-tiny.dtd">
<svg version="1.1" xmlns="http://www.w3.org/2000/svg" width="275px" height="450px">
	<g transform="translate(-450, -75)">
		<path fill="none" stroke="#56626B" stroke-width="6" d="M587.292,512.175
			c46.346,0,83.984-8.88,94.263-24.5c15.333-43.5,38.684-100.113,36.5-149.75c-2.582-58.693-40.274-86.838-41.239-133.464
			c-1.776-85.755-27.531-122.911-89.523-122.911c-61.991,0-87.746,37.155-89.522,122.911
			c-0.965,46.626-38.658,74.771-41.239,133.464c-2.184,49.637,21.167,106.25,36.5,149.75
			C503.308,503.295,540.947,512.175,587.292,512.175z"/>
		<path fill="none" stroke="#6C9380" stroke-width="6" d="M587.292,496.425
			c38.579,0,69.91-7.392,78.466-20.394c12.764-36.211,32.2-83.336,30.383-124.655c-2.148-48.857-33.524-72.285-34.328-111.097
			c-1.479-71.384-22.917-102.313-74.521-102.313c-51.602,0-73.041,30.929-74.52,102.313c-0.804,38.812-32.18,62.241-34.328,111.097
			c-1.817,41.319,17.619,88.444,30.383,124.655C517.383,489.033,548.714,496.425,587.292,496.425z"/>
		<path fill="none" stroke="#C0CA55" stroke-width="6" d="M587.292,480.676
			c30.813,0,55.836-5.904,62.669-16.289c10.193-28.92,25.718-66.559,24.267-99.559c-1.717-39.021-26.776-57.732-27.418-88.731
			c-1.181-57.013-18.303-81.715-59.518-81.715c-41.214,0-58.336,24.703-59.517,81.715c-0.643,30.999-25.701,49.709-27.418,88.731
			c-1.451,33,14.073,70.639,24.267,99.559C531.457,474.772,556.48,480.676,587.292,480.676z"/>
		<path fill="none" stroke="#F07C6C" stroke-width="6" d="M587.292,464.926
			c23.046,0,41.762-4.415,46.872-12.183c7.624-21.63,19.235-49.78,18.149-74.463c-1.283-29.185-20.026-43.18-20.506-66.365
			c-0.884-42.641-13.69-61.117-44.516-61.117s-43.632,18.476-44.515,61.117c-0.48,23.186-19.223,37.181-20.506,66.365
			c-1.086,24.683,10.524,52.833,18.149,74.463C545.531,460.511,564.247,464.926,587.292,464.926z"/>
	</g>
</svg> 
